<?xml version="1.0" encoding="UTF-8"?>
<svg version="1.1" viewBox="0 0 2048 1683" width="1280" height="1280" xmlns="http://www.w3.org/2000/svg">
<path transform="translate(969,313)" d="m0 0h13l10 3 10 7 7 9 4 9 1 4v11l-3 10-7 11-8 7-9 4-6 2-6 27-1 4h13l37 2 31 4 29 6 26 7 28 10 25 12 13 7 18 12 15 11 13 7 16 16 9 11 4 5 24 13 21 13 18 13 14 11 15 14 9 11 11 15 9 16 11 26v2h16l11 4 10 10 10 15 6 12 6 1 18 4 9 5 6 9 4 10 3 15v15l-1 3 6-4 33-33 7-8 35-35 8-7 14-14 8-6 5-5 7-4 5-2h7l11 4 11 7 12 11 9 11 6 10 5 12 2 12-3 9-10 11-9 11-8 9-2 1v2l10 6 13 10 14 14 10 13 9 15 5 13 2 9v11l-4 8-6 5-7 3-7 8-11 12-12 14-9 11-13 15-7 8-22 26-9 10-8 10-13 15-9 11-9 10-9 11-15 16-7 8-16 17-13 13-8 7-15 14-10 8-14 10-15 8-20 6-11 2-21 1-7 7-2 4v38l-3 15-5 12-7 9-9 8-3-1v-50l1-1v-6l-1-2v-13l7-8 19-19 7-10-1-6-9-16-9-10-15-15-8-7-16-15-8-6-6-1-11 4-6 5h-2l-2 4h-2l-1 3-2 1h-25l2-4 32-32 11-6 4-1h17l8 4 7 7 7 8 12 13 15 15v2l5-2 5-5 1-4-9-1-12-7-9-8-11-9-14-13-18-18-5-6-2-1-2 7-11 12-14 15-14 14-7 8-12 12h-25l2-5 21-21 7-8 9-9 1-2h2l2-4 21-21 7-6h6l-7-13-4 2-22 22-7 8-7 7-7 8-8 8-7 8-8 8-7 8-9 9-2 1h-18l2-4 9-9 7-8 17-17 7-8 25-25 7-8 18-18 10-7 13-6h7l18-18 7-8 14-14 7-8 14-14 7-8 27-27 2-4h-9l-8-2-7-6-1-6 5-6 5-5 7-9 7-14 4-16 1-13-2-18-5-15-5-9v-2h-2l-2 14-5 23-5 15-9 20-11 19-10 14-9 11-9 10-13 13-14 11-10 7-14 8-23 12-24 10-26 7-20 4-24 3h-17l-2-3-3-17-6-18-3-4v-3l32-2 27-4 25-7 21-7 15-6 21-11 17-11 16-13 11-12 10-16 7-14 5-13 4-20 1-10v-31l-2-15-4-14-7-17-10-16-11-14-11-11-22-18-21-14-15-9-24-13-23-11-27-10-48-12-31-6-35-5-36-3-18-1h-61l-40 3-37 5-27 5-33 9-30 10-22 9-26 13-21 13-20 14-17 14-17 16-12 14-10 13-13 22-8 19-4 14-3 17v37l3 17 6 16 9 17 12 17 21 21 11 9 10 7 13 8 8 5v3l-7 8-6-2-14-8-15-11-11-9-17-16-10-10-11-16-12-23-7-21-3-13-2-17-1-20-3 4-8 19-3 14v18l4 16 8 17 8 10 8 8 2 5-6 7-5 3-7 1h-10l-8-3-5-5-4-5-8-15-6-15-5-16-4-23v-34l-4 2-4 9-2 8-1 44-2 6-5 4h-5l-7-8-7-16-2-9-1-9v-9l3-19 5-14 7-9 10-5 15-3 7-1 10-18 9-12 7-7 9-4 7-1 14 2 4 1 6-9 8-15 8-12 11-14 11-12 10-11 8-7 7-7 14-11 15-11 23-13 34-17 21-9 33-11 27-7 31-6 38-5 23-2 56-3 33-1h40l33 2 46 6 10 2h4l-18-10-18-6-37-8-37-6-40-4-15-1h-20l-6 1-2-1h-23l-37 4-36 6-40 10-37 12-31 12-29 12h-3l1-3 11-9 10-7 20-12 16-9 15-8 34-15 35-12 24-6 29-6 29-4 12-1 1-8 6-25v-6l-5-5-7-9-4-9-1-13 3-12 6-10 8-7 11-5zm627 348-6 5-12 16-12 13-9 11-7 7-9 11-8 8-7 8-24 26-11 12-11 11-7 8-10 10-7 8-14 14-7 8-8 8-7 8-10 10-7 8-11 11-7 8-14 14-7 8-14 14-7 8-13 13-7 8-5 5 2 5 13 15 14 15 6 5 4-2 6-5 7-8 17-17 7-8 15-15v-2h2l7-8 32-32 7-8 32-32 7-8 10-10 7-8 19-19 7-8 35-35 9-13 11-21 4-16 1-6v-57zm21 3-5 5v9l5 12 6 9 9 10 10 7 10 4 5-1 5-5v-7l-3-10-5-9-9-11-10-8-8-4-3-1zm-174 69-1 5v29l-4 25-5 17-5 13 1 2 9-8 5-6 8-8 2-20 2-12v-12l-4-16-5-8zm186 42-6 5-1 2v11l4 12 6 11 9 12 11 11 13 8 10 4h8l6-5 1-3v-11l-5-15-7-11-11-13-11-9-10-6-8-3zm-24 18-8 9 1 4 4 5v6l-8 11-12 14-11 12-7 8-11 12-7 8-12 13-11 12-14 15-15 16-16 17-9 9-7 8-10 10-7 8-15 16-16 17-7 7-7 8-3 2-4 15-7 14-3 4v3l21 6 14 2 17 1h13l10-2 12-7 8-7v-2l4-2 7-7v-2h2v-2h2v-2l4-2 9-10 20-20 7-8 10-10 11-14 14-17 12-17 20-30 8-14 9-20 5-18 2-13v-17l-4-18-7-21-5-10zm-11 13-17 17-7 8-17 17-7 8-14 14-7 8-15 15-7 8-7 7v2h-2l-7 8-12 12v2h-2l-7 8-19 19-7 8-46 49-9 9 1 3 4-1 14-14v-2l4-2 7-8 27-27v-2h2l7-8 13-13 7-8 16-16 7-8 17-17 7-8 69-69 7-6 3-5-1-8z" fill="#453B3A"/>
<path transform="translate(953,576)" d="m0 0h42l36 2 42 4 38 6 28 6 20 6 25 9 16 8 14 8 13 10 19 19 8 10 8 13 6 13 4 13 1 9v23l-4 15-8 16-12 17-14 15-13 10-15 9-15 7-40 14-22 5-37 6-8 1-23 1h-137l-48-1-30-6-14-3-19-2-18-1-32-12-26-12-11-8-10-9-10-12-8-14-6-14-5-19-1-10v-20l3-17 5-15 8-16 8-10 8-9 14-11 13-8 16-8 19-8 28-9 32-8 37-7 38-4zm211 86-27 13-24 9-28 9-15 4-1 4 6 12 10 11 12 7 10 3h22l12-4 9-6 7-6 7-10 5-13 1-7v-12l-3-12-1-2zm-391 9-4 10-1 11 2 14 5 12 7 9 9 8 12 6 12 3h13l13-4 11-6 9-8 8-13 1-5-7-3-27-8-27-10-24-11-10-5z" fill="#443A39"/>
<path transform="translate(934,863)" d="m0 0 58 1 40 1 21 3 12 4 14 7 12 9 10 9 10 14 8 15 5 15 2 12v29l-1 47v47l3 4 19 1 67 1 27 1 15 3 15 5 11 6 14 10 8 7 13 17 9 19 4 13 2 13v46l-2 66-4 20-6 15-9 15-14 15-14 10-14 7-11 4-18 3h-23l-68-3h-17l-4 2-2 4v111l-3 14-4 12-9 17-8 11-11 12-11 8-12 7-19 7-14 3-19 1h-99l-17-3-16-6-13-7-12-9-8-7-11-14-7-11-8-20-3-13-1-6-1-107-108-1-17-3-16-6-15-8-11-8-12-11-8-10-9-15-7-19-3-17-1-16v-97l3-17 7-19 8-14 3-2 9 12 10 12-1 6-5 10-4 13-1 12v99l3 16 7 16 7 10 10 10 10 6 10 5 16 4 10 1 96 1 10 7 10 9 9 10 6 10 1 104 4 16 8 16 8 10 11 9 16 8 15 4 12 1h78l22-1 18-5 13-7 12-10 10-14 6-13 3-15 1-101 3-5 12-13 9-10 13-12 8-6 83-1 20-1 14-3 12-5 13-9 10-10 8-14 5-14 1-6v-114l-4-15-7-14-7-9-8-8-13-8-13-5-11-2-102-1-9-6-16-15-7-8-6-9-1-100-3-16-8-17-7-9-9-9-13-8-14-5-11-2h-106l-9 1-5 1-10-11-14-11v-4l13-5 18-5z" fill="#453B3A"/>
<path transform="translate(801,853)" d="m0 0h18l12 5 17 11 17 12 20 14 9 9 3 6v10l-6 8-7 4-14 3-16-2-16-6-25-11-7-1-9 4-21 8-8 2v2l4 2 10 9 7 6 23 1 42 6 29 5 17 4 14 6 6 7 4 9 1 4v7l-4 8-5 6-11 6-9 2h-14l-43-5h-57l-13 3-2 1 66 1 39 4 20 4 18 8 10 7 6 7 2 5v9l-4 8-8 7-14 5-12 3-7 1-20 1-36-2-33-5-27-3h-9l3 5 10 7 10 6 18 7 18 4 9 1 44 2 17 3 8 4 9 8 5 10v14l-5 10-6 7-10 6-15 4-28-1-71-1-25-2-24-4-17-5-17-7-13-8-11-9-12-12-11-15-8-15-6-17-3-12-1-8v-26l4-22 8-23 10-19 12-16 5-6 9-19 8-14 8-10 9-10 15-11 16-8 16-5 10-2 20-8 16-6zm0 10-6 2 1 5 8 12 7 7 11 6 14 6 23 5 19 4h3l-2-5-19-14-20-14-13-9-11-5zm-42 15-15 4-12 5-14 8-1 2 24 7 11 2h13l8-4 3-3-2-6-9-15zm-25 53-11 2-13 5-18 10-11 8-9 8-8 10-7 12-6 16-3 14-1 7v27l3 19 5 12 4 6 9 11 8 8 8 7 4 1-2-11-3-18-1-11v-28l3-25 5-21 8-18 10-16 11-13v-2l20-10 19-6-1-2-11-2zm43 24-6 8-6 14 1 6 6 5 2 1h6l4-5 4-18 4-8v-3zm26 2-5 10 1 6 8 8 14 8 12 4 6 1h28l16-4 8-4 4-6v-5l-7-3-48-10-31-5zm-40 68-3 5-4 16-1 11 3 7 1 1h5l5-6 3-27v-6zm31 3-3 3-1 4v11l4 8 9 7 11 4 9 2h15l15-4 16-8 12-8 6-5 1-4-12-3-47-6zm-38 61-4 8-6 14-1 4v9l4 8 4 3 8 1 7-4 12-24-2-4-11-7-10-8zm31 21v10l4 10 6 8 14 8 12 3h13l18-3 11-4 8-7 3-7v-5l-10-2-36-2-21-3-15-4z" fill="#463C3B"/>
<path transform="translate(1109,1129)" d="m0 0 9 2 19 10 24 14 21 12 22 13 27 15 15 9 14 8 9 6 2 3-1 6-9 10-16 10-28 15-23 13-29 17-21 13-13 8-12 6-10 3-5-1-4-5v-175l3-8z" fill="#443A39"/>
<path transform="translate(877,1370)" d="m0 0h178l7 3 3 4v7l-8 17-14 24-15 26-13 22-9 15-16 29-13 21-3 3-6-1-10-9-7-10-10-18-10-19-10-17-13-23-13-22-13-21-8-17-1-8z" fill="#443A39"/>
<path transform="translate(393,801)" d="m0 0h7l10 4 5 4 4 4 5-5 6-4 3-1h11l8 3 8 7 5 8 2 7v10l-1 7 10 7 4 7 1 4v20l-3 13-6 11-6 7-11 7-11 5-4 10-4 13-5 10-5 7-8 5-8 2-11-1-13-4h-7l-12 4h-13l-7-3-8-7-5-10-1-19-6-11-5-9-2-7v-13l4-10 7-7 9-4h3l-4-12 1-9 5-10 8-9 6-2h13l5-15 6-8 5-4zm10 31-6 8-10 5-4 1-15 1 2 11v7l-4 12-6 8-5 4-8 4 3 10-1 9-1 7 14 2 6 4 6 5 4-11 4-6 8-6 10-3 10-1 1-1 2-14 2-4 10-5-3-9-2-7v-7l4-9 3-6-1-1-11-2-8-5z" fill="#453B3A"/>
<path transform="translate(727,1179)" d="m0 0 41 4 53 2 2 1v126l-3 8-5 5-9-2-16-8-22-13-21-12-24-14-26-15-14-8-16-9-11-7-4-4 1-7 4-5 10-8 22-13 17-9 1-3-2-6h15z" fill="#443A39"/>
<path transform="translate(969,921)" d="m0 0 7 1 8 7 9 13 13 24 9 16 28 48 11 18 9 15 7 15 1 6-3 6-3 2h-147l1-3 11-8 6-9 3-10v-7l-4-13-9-10-9-6 2-4 8-7 6-10 2-6v-12l-1-8 10-18 6-10 15-26z" fill="#443A39"/>
<path transform="translate(1578,419)" d="m0 0h8l8 4 6 9 3 10 13 1 6 3 7 8 3 7v9l-2 4v3l11 6 6 8 2 5v12l-3 8-7 11-1 3-1 15-5 10-6 5-10 3-11-1-8-3h-6l-13 4h-10l-7-3-5-5-6-9-7-20-5-4-15-8-7-8-4-8-3-12v-13l3-9 9-8h2l-1-5v-13l5-8 8-7 4-2h14l5 3 4 5 3 1 2-4 8-6zm-4 26-6 4-10 3-1 2 5 10v9l-3 10 5 4h2l3 9v8l1 1 13 1 9 5 3 1 7 14 4-1v-2l4-2 5-2h8l1-3-1-5v-8l1-2v-6l-9-5-6-8-3-10 1-15h-11l-10-3-5-4-3-5z" fill="#453B3A"/>
<path transform="translate(618,384)" d="m0 0h1l3 22 4 12 6 8 10 5 9 2h16v3l-12 4-8 7-7 12-2 7v12l4 10 8 10 7 7 12 9-3 1-14-6-12-3h-13l-11 4-9 6-6 9-3 8-1 8v30l-3-4-6-22-6-12-10-9-12-6-16-4h-21l-15 2-6 1 4-5 11-9 7-7 7-14 3-16v-13l-7-14-12-12 1-2 15 7 16 4 13 2h14l12-3 13-7 11-10 4-9 2-13 1-10z" fill="#49403F"/>
<path transform="translate(237,682)" d="m0 0 8 4 23 16 17 12 15 11 20 14 10 9 1 3-8 18-6 11-9 13-9 11-7 8-8-6-17-14-13-10-13-11-10-9-8-7-12-11-4-3 2-5 9-12 8-13 6-15 4-13z" fill="#453B3A"/>
<path transform="translate(1646,997)" d="m0 0h1l1 20 3 16 6 12 7 8 9 6 10 3 10-1 11-4 2 1-17 11-6 7-2 4v12l3 10 2 5h-2l-4-5-10-5-4-1h-15l-6 4-7 8-4 8-5 16-2 1-1-25-4-8-7-8-6-4-3-1h-16l-12 5-11 6-2-1 7-6 10-7 3-1 6-12 2-8v-16l-3-12-7-13-5-7v-2l5 2 12 7 4 1h17l12-3 8-5 7-12z" fill="#4A4140"/>
<path transform="translate(780,574)" d="m0 0h22l6 2 1 6-8 5-39 14-20 9-13 7-12 9-9 8-10 15-8 13-6 15-4 13-3 17v26l4 27v6l-2 2-6-1-7-8-8-16-5-19-1-10 1-22 4-18 6-17 10-19 10-14 9-10 9-9 13-10 10-6 15-7 21-5z" fill="#463D3C"/>
<path transform="translate(1739,324)" d="m0 0 4 1 5 15 9 16 10 14-1 4-7 7-11 9-10 9-39 30-3 2-5-1-12-15-9-14-9-17v-5l7-7 11-7 15-11 19-13 21-14z" fill="#453B3A"/>
<path transform="translate(1295,682)" d="m0 0 5 2 5 9 4 11 2 18v16l-3 17-5 16-10 21-7 11-8 10-18 18-17 12-16 8-16 6-18 4h-21l-6-3-2-2 1-4 8-5 29-11 16-8 12-8 9-7 15-14 11-14 9-15 7-16 6-23 4-43 3-5z" fill="#463C3B"/>
<path transform="translate(1778,312)" d="m0 0h27l10 3 7 6 2 5v11l-4 14-8 17-8 12-9 10-4 1 1 2-5 5-20 14-12 8-16 11-22 15-3 2-4-1-11-10 5-5 23-13 25-15 19-13 9-6 5 1-11-13-7-10-10-17-5-14-2-12 9-4 11-3z" fill="#453B3A"/>
<path transform="translate(168,668)" d="m0 0h19l22 3 13 4 5 3-1 11-5 15-8 16-10 16-10 13-12 12-5 1-9-10-9-13-6-10-8-20-3-12v-10l3-8 8-7 10-3z" fill="#453B3A"/>
<path transform="translate(496,922)" d="m0 0 9 1 5 2 6-3 7 1 5 4 3 6 1 9 5 5 1 3v7l-3 10-6 7-8 4-5 13-6 7-2 1h-8l-4-1-15 1-7-3-4-8-2-10-4-10 1-7 3-5 5-3v-10l5-7 9-3 5-8zm5 15-4 4-10 2v7l-3 7-4 4-3 2 1 9 2 3 5 2 5-1 3-4v-2l11-3 2-5v-3l4-2v-4l-1-7 2-5-6-4z" fill="#473E3D"/>
<path transform="translate(1492,520)" d="m0 0 6 1 4 4 2 6h6l5 4 2 7 1 5 5 4 2 5-2 9-3 6-3 10-5 4h-7l-6-1-5 1h-9l-7-9-4-9-7-4-4-5-2-8 1-9 4-4 1-9 4-5 3-2h7l2 1h6zm-5 13-3 2 1 9-1 5 3 4 3 5 8 3 4 5h6l4-3-1-9-6-6v-9l-10-4-3-2z" fill="#473D3C"/>
<path transform="translate(190,756)" d="m0 0 5 1 12 9 15 10 17 11 44 26 3 3-2 4-9 8-3 2-4-1-10-6-14-10-17-12-18-13-13-9-12-9-5-4 1-4z" fill="#473D3C"/>
<path transform="translate(1780,385)" d="m0 0 4 1 5 3 3 4-5 5-20 14-12 8-16 11-22 15-3 2-4-1-11-10 5-5 23-13 25-15 19-13z" fill="#473D3C"/>
<path transform="translate(1450,569)" d="m0 0 4 1 4 4-1 5-7 6-11 14-1 2 8 4 1 4-8 9-8 13-6 10-4 2-1-4 3-12-4 6-3 1-1-5 6-16 10-19 12-17z" fill="#4A4140"/>
<path transform="translate(333,757)" d="m0 0h2l2 7v11l-5 13-18 27-8 10-8 5-10 4h-3l2-5 10-11 12-16 10-16 8-16 5-12z" fill="#4A403F"/>
<path transform="translate(547,979)" d="m0 0 7 6 10 12 12 20 8 17 7 20-2 4-4-2-15-30-7-11-10-13-13-13 2-4z" fill="#4A4140"/>
<path transform="translate(527,1022)" d="m0 0 4 2 6 7 5 5 9 10 11 14 10 14 3 6-1 3-4-2-11-13-4-5-8-7-7-7-8-7-11-9 1-5z" fill="#473D3C"/>
<path transform="translate(1657,386)" d="m0 0h2l10 22 10 16 9 11 9 10 2 2v3h-6l-9-5-9-10-11-16-7-12-1-3v-15z" fill="#493F3E"/>
<path transform="translate(534,450)" d="m0 0 5 4 8 2 3 4 1 8-1 8-3 7-5 8-3 2h-10-3l5-11 3-16z" fill="#FEFEFE"/>
<path transform="translate(603,425)" d="m0 0 1 2h-2v2h2v3l4 2-2 4-4 1-1 3-7 4-9 2h-21l-7-2-3-8h20l12-3 13-7z" fill="#FEFEFE"/>
<path transform="translate(562,1018)" d="m0 0 4 2 9 17 9 24v6l-4-1-5-8-9-16-12-15 2-4z" fill="#4A403F"/>
<path transform="translate(1468,605)" d="m0 0 4 2 3 3-1 5-11 9-14 12-4 5h-2l-2 4-9 11h-3l1-6 13-17 11-13 7-8 5-6z" fill="#483E3D"/>
<path transform="translate(560,503)" d="m0 0 5 1 8 6-2 1-1 3-4 2h-3v2l-9-2-10-2h-30v-2l8 1v-2l7-2 3 1h9v-3l9-2 9-1z" fill="#FEFEFE"/>
<path transform="translate(637,463)" d="m0 0 1 3v12l3 9-8 2-5-1-3-4v-9l2-3 5-2h3z" fill="#FEFEFE"/>
<path transform="translate(628,423)" d="m0 0 11 7 4 2v1h-14v5l-3 3-4-2-1-5 2-3h4z" fill="#FEFEFE"/>
<path transform="translate(611,502)" d="m0 0 10 1 6 1v2l-11 4-5 3-2-1 2-6z" fill="#FEFEFE"/>
</svg>
